<svg width="14" height="16" viewBox="0 0 14 16" fill="none" xmlns="http://www.w3.org/2000/svg">
<path fill-rule="evenodd" clip-rule="evenodd" d="M1.19995 4.69995C1.19995 4.42381 1.42381 4.19995 1.69995 4.19995H10.2V12.4928L12.5284 10.1644C12.7236 9.96916 13.0402 9.96916 13.2355 10.1644C13.4307 10.3597 13.4307 10.6763 13.2355 10.8715L10.0535 14.0535C9.85824 14.2488 9.54166 14.2488 9.3464 14.0535L6.16442 10.8715C5.96916 10.6763 5.96916 10.3597 6.16442 10.1644C6.35968 9.96916 6.67626 9.96916 6.87152 10.1644L9.19995 12.4928V5.19995H1.69995C1.42381 5.19995 1.19995 4.97609 1.19995 4.69995Z" fill="#F00E0E"/>
<path fill-rule="evenodd" clip-rule="evenodd" d="M10.4 4V12.0101L12.387 10.023C12.6604 9.74968 13.1036 9.74968 13.377 10.023C13.6503 10.2964 13.6503 10.7396 13.377 11.013L10.195 14.195C9.92161 14.4683 9.47839 14.4683 9.20502 14.195L6.02304 11.013C5.74968 10.7396 5.74968 10.2964 6.02304 10.023C6.29641 9.74968 6.73963 9.74968 7.01299 10.023L9 12.0101V5.4H1.7C1.3134 5.4 1 5.0866 1 4.7C1 4.3134 1.3134 4 1.7 4H10.4ZM9.19995 5.19995V12.4928L6.87152 10.1644C6.67626 9.96916 6.35968 9.96916 6.16442 10.1644C5.96916 10.3597 5.96916 10.6763 6.16442 10.8715L9.3464 14.0535C9.54166 14.2488 9.85824 14.2488 10.0535 14.0535L13.2355 10.8715C13.4307 10.6763 13.4307 10.3597 13.2355 10.1644C13.0402 9.96916 12.7236 9.96916 12.5284 10.1644L10.2 12.4928V4.19995H1.69995C1.42381 4.19995 1.19995 4.42381 1.19995 4.69995C1.19995 4.97609 1.42381 5.19995 1.69995 5.19995H9.19995Z" fill="#F00E0E"/>
</svg>
